<?xml version="1.0" encoding="utf-8"?>
<!-- Generator: Adobe Illustrator 28.0.0, SVG Export Plug-In . SVG Version: 6.00 Build 0)  -->
<svg version="1.1" id="Layer_1" xmlns="http://www.w3.org/2000/svg" xmlns:xlink="http://www.w3.org/1999/xlink" x="0px" y="0px"
	 viewBox="0 0 951 152.5" style="enable-background:new 0 0 951 152.5;" xml:space="preserve">
<g>
	<path d="M40.14,145.41c-9.16-3.01-17.09-8.02-23.79-15.03c-6.7-7.01-10.79-16.17-12.26-27.48v-0.74c0-2.09,1.17-3.13,3.5-3.13H34.7
		c1.97,0,3.32,1.05,4.06,3.13c4.55,13.4,14.32,20.1,29.32,20.1c6.15,0,11.34-1.32,15.58-3.96c4.24-2.64,6.36-6.55,6.36-11.71
		c0-3.44-1.32-6.27-3.96-8.48c-2.65-2.21-5.96-3.93-9.96-5.16c-4-1.23-9.62-2.64-16.87-4.24c-10.94-2.46-19.82-4.98-26.65-7.56
		c-6.82-2.58-12.72-6.67-17.7-12.26C9.89,63.28,7.4,55.69,7.4,46.1c0-9.34,2.31-17.24,6.92-23.7S25.17,11.13,33.04,7.93
		c7.87-3.2,16.72-4.79,26.56-4.79c9.59,0,18.53,1.6,26.83,4.79c8.3,3.2,15.34,8.02,21.12,14.48c5.78,6.45,9.59,14.29,11.43,23.51
		l0.18,1.11c0,0.86-0.34,1.57-1.01,2.12c-0.68,0.55-1.51,0.83-2.49,0.83H88.73c-1.97,0-3.32-0.98-4.06-2.95
		c-2.09-5.16-5.35-9.16-9.77-11.99c-4.43-2.83-9.77-4.24-16.04-4.24c-5.16,0-9.56,1.05-13.19,3.14c-3.63,2.09-5.44,5.23-5.44,9.41
		c0,3.2,1.26,5.81,3.78,7.84c2.52,2.03,5.72,3.66,9.59,4.89c3.87,1.23,9.31,2.65,16.32,4.24c10.94,2.46,19.98,5.04,27.11,7.75
		c7.13,2.71,13.28,7.01,18.44,12.91c5.16,5.9,7.75,13.9,7.75,23.97c0,9.22-2.21,17.21-6.64,23.97
		c-4.43,6.76-10.76,11.96-18.99,15.58c-8.24,3.62-18.01,5.44-29.32,5.44C58.67,149.93,49.3,148.42,40.14,145.41z"/>
	<path d="M153.37,142.09c-8.3-4.61-14.69-10.97-19.18-19.09c-4.49-8.11-6.73-17.33-6.73-27.66c0-9.34,1.94-18.23,5.81-26.65
		c3.87-8.42,9.83-15.31,17.89-20.65c8.05-5.35,18.04-8.02,29.97-8.02c9.71,0,18.65,1.91,26.83,5.72c8.18,3.81,14.75,9.9,19.73,18.26
		c4.98,8.36,7.47,18.93,7.47,31.72v1.66c0,2.46-1.23,3.69-3.69,3.69h-67.5c-1.35,0-2.31,0.37-2.86,1.11s-0.65,1.72-0.28,2.95
		c0.86,3.57,2.33,6.7,4.43,9.41c4.18,5.29,10.33,7.93,18.44,7.93c3.93,0,7.38-0.83,10.33-2.49c2.95-1.66,5.28-3.9,7.01-6.73
		c1.11-1.72,2.52-2.58,4.24-2.58h23.79c1.35,0,2.33,0.31,2.95,0.92c0.61,0.62,0.8,1.35,0.55,2.21
		c-3.57,10.45-9.56,18.93-17.98,25.45c-8.42,6.52-19.27,9.77-32.55,9.77C171.23,149.01,161.67,146.7,153.37,142.09z M199.38,79.11
		c0.98,0,1.81-0.25,2.49-0.74c0.67-0.49,1.01-1.17,1.01-2.03l-0.37-1.48c-1.23-2.21-2.46-3.93-3.69-5.16
		c-4.06-4.06-9.59-6.09-16.6-6.09s-12.54,2.03-16.6,6.09c-1.6,1.6-2.83,3.38-3.69,5.35c-0.12,0.37-0.18,0.8-0.18,1.29
		c0,0.86,0.31,1.54,0.92,2.03c0.61,0.49,1.41,0.74,2.4,0.74H199.38z"/>
	<path d="M249.08,140.8c-6.45-5.47-9.68-13.25-9.68-23.33c0-11.07,4.36-19.48,13.09-25.27c3.32-2.09,6.98-3.75,10.97-4.98
		c3.99-1.23,8.58-2.33,13.74-3.32l23.61-4.24c1.11-0.25,1.94-0.71,2.49-1.38c0.55-0.67,0.77-1.63,0.65-2.86
		c-0.74-3.69-2.03-6.52-3.87-8.48c-2.34-2.46-5.84-3.69-10.51-3.69c-3.2,0-6.15,0.95-8.85,2.86c-2.71,1.91-4.67,4.52-5.9,7.84
		c-0.74,2.09-2.09,3.14-4.06,3.14h-23.42c-1.35,0-2.31-0.37-2.86-1.11s-0.71-1.72-0.46-2.95c2.46-10.94,7.99-19.18,16.6-24.71
		c8.6-5.53,18.32-8.3,29.14-8.3c6.39,0,12.38,0.86,17.98,2.58c5.59,1.72,10.42,4.31,14.48,7.75c4.06,3.44,7.01,7.5,8.85,12.17
		c1.84,4.67,2.98,9.53,3.41,14.57c0.43,5.04,0.65,11.74,0.65,20.1v45.92c0,2.46-1.23,3.69-3.69,3.69h-23.6
		c-2.46,0-3.69-1.23-3.69-3.69v-1.66c0-2.21-0.43-3.32-1.29-3.32c-0.62,0-1.17,0.43-1.66,1.29c-1.6,1.72-3.07,3.08-4.43,4.06
		c-5.29,3.69-12.97,5.53-23.05,5.53C263.74,149.01,255.53,146.27,249.08,140.8z M293.99,123c3.56-1.6,6.11-3.78,7.65-6.55
		c1.54-2.77,2.55-6.48,3.04-11.16v-0.37c0-1.23-0.37-2.12-1.11-2.67c-0.74-0.55-1.72-0.71-2.95-0.46l-14.75,2.95
		c-3.44,0.62-6.12,1.29-8.02,2.03c-1.91,0.74-3.48,1.72-4.7,2.95c-1.84,1.84-2.77,4.06-2.77,6.64c0,3.07,1.17,5.38,3.5,6.92
		c2.33,1.54,5.28,2.3,8.85,2.3C286.42,125.58,290.17,124.73,293.99,123z"/>
	<path d="M378.82,146.79c-7.62,0-13.55-1.81-17.8-5.44c-4.24-3.62-6.36-8.76-6.36-15.4V70.08c0-2.46-1.23-3.69-3.69-3.69h-7.01
		c-2.46,0-3.69-1.23-3.69-3.69V45.92c0-2.46,1.23-3.69,3.69-3.69h7.01c2.46,0,3.69-1.23,3.69-3.69V9.77c0-2.46,1.23-3.69,3.69-3.69
		h23.6c2.46,0,3.69,1.23,3.69,3.69v28.77c0,2.46,1.23,3.69,3.69,3.69h10.7c2.46,0,3.69,1.23,3.69,3.69V62.7
		c0,2.46-1.23,3.69-3.69,3.69h-10.7c-2.46,0-3.69,1.23-3.69,3.69v45.37c0,4.18,2.09,6.27,6.27,6.27h7.93c2.46,0,3.69,1.23,3.69,3.69
		v17.7c0,2.46-1.23,3.69-3.69,3.69H378.82z"/>
	<path d="M415.88,146.79c-2.46,0-3.69-1.23-3.69-3.69V45.92c0-2.46,1.23-3.69,3.69-3.69h23.61c2.46,0,3.69,1.23,3.69,3.69v1.11
		c0,1.97,0.49,2.95,1.48,2.95c0.74,0,1.6-0.49,2.58-1.48c5.78-5.65,13.34-8.48,22.68-8.48c12.05,0,20.29,3.81,24.71,11.43
		c0.86,1.23,1.6,1.84,2.21,1.84c0.61,0,1.29-0.49,2.03-1.48c6.15-7.87,15-11.8,26.56-11.8c11.43,0,19.98,3.35,25.63,10.05
		c5.65,6.7,8.48,15.95,8.48,27.75v65.28c0,2.46-1.23,3.69-3.69,3.69h-23.61c-2.46,0-3.69-1.23-3.69-3.69V80.59
		c0-5.65-1.08-9.68-3.23-12.08c-2.15-2.4-5.5-3.6-10.05-3.6c-4.43,0-7.68,1.23-9.77,3.69c-1.47,1.72-2.52,4-3.13,6.82
		c-0.62,2.83-0.92,6.45-0.92,10.88v56.8c0,2.46-1.23,3.69-3.69,3.69h-23.61c-2.46,0-3.69-1.23-3.69-3.69V80.59
		c0-5.65-1.11-9.68-3.32-12.08s-5.66-3.6-10.33-3.6c-4.3,0-7.5,1.29-9.59,3.87c-1.48,1.72-2.52,3.94-3.14,6.64
		c-0.62,2.71-0.92,6.33-0.92,10.88v56.8c0,2.46-1.23,3.69-3.69,3.69H415.88z"/>
	<path d="M576.97,140.8c-6.45-5.47-9.68-13.25-9.68-23.33c0-11.07,4.36-19.48,13.09-25.27c3.32-2.09,6.98-3.75,10.97-4.98
		c3.99-1.23,8.58-2.33,13.74-3.32l23.6-4.24c1.11-0.25,1.94-0.71,2.49-1.38c0.55-0.67,0.77-1.63,0.65-2.86
		c-0.74-3.69-2.03-6.52-3.87-8.48c-2.34-2.46-5.84-3.69-10.51-3.69c-3.2,0-6.15,0.95-8.85,2.86c-2.71,1.91-4.67,4.52-5.9,7.84
		c-0.74,2.09-2.09,3.14-4.06,3.14h-23.42c-1.35,0-2.3-0.37-2.86-1.11s-0.71-1.72-0.46-2.95c2.46-10.94,7.99-19.18,16.6-24.71
		c8.6-5.53,18.32-8.3,29.14-8.3c6.39,0,12.38,0.86,17.98,2.58c5.59,1.72,10.42,4.31,14.48,7.75c4.06,3.44,7.01,7.5,8.85,12.17
		c1.84,4.67,2.98,9.53,3.41,14.57c0.43,5.04,0.65,11.74,0.65,20.1v45.92c0,2.46-1.23,3.69-3.69,3.69h-23.61
		c-2.46,0-3.69-1.23-3.69-3.69v-1.66c0-2.21-0.43-3.32-1.29-3.32c-0.62,0-1.17,0.43-1.66,1.29c-1.6,1.72-3.07,3.08-4.43,4.06
		c-5.29,3.69-12.97,5.53-23.05,5.53C591.63,149.01,583.43,146.27,576.97,140.8z M621.88,123c3.56-1.6,6.11-3.78,7.65-6.55
		c1.54-2.77,2.55-6.48,3.04-11.16v-0.37c0-1.23-0.37-2.12-1.11-2.67c-0.74-0.55-1.72-0.71-2.95-0.46l-14.75,2.95
		c-3.44,0.62-6.12,1.29-8.02,2.03c-1.91,0.74-3.47,1.72-4.7,2.95c-1.84,1.84-2.77,4.06-2.77,6.64c0,3.07,1.17,5.38,3.5,6.92
		c2.33,1.54,5.29,2.3,8.85,2.3C614.32,125.58,618.06,124.73,621.88,123z"/>
	<path d="M706.71,146.79c-7.62,0-13.55-1.81-17.8-5.44c-4.24-3.62-6.36-8.76-6.36-15.4V70.08c0-2.46-1.23-3.69-3.69-3.69h-7.01
		c-2.46,0-3.69-1.23-3.69-3.69V45.92c0-2.46,1.23-3.69,3.69-3.69h7.01c2.46,0,3.69-1.23,3.69-3.69V9.77c0-2.46,1.23-3.69,3.69-3.69
		h23.61c2.46,0,3.69,1.23,3.69,3.69v28.77c0,2.46,1.23,3.69,3.69,3.69h10.7c2.46,0,3.69,1.23,3.69,3.69V62.7
		c0,2.46-1.23,3.69-3.69,3.69h-10.7c-2.46,0-3.69,1.23-3.69,3.69v45.37c0,4.18,2.09,6.27,6.27,6.27h7.93c2.46,0,3.69,1.23,3.69,3.69
		v17.7c0,2.46-1.23,3.69-3.69,3.69H706.71z"/>
	<path d="M760.83,142.18c-8.18-4.55-14.54-10.97-19.09-19.27c-4.55-8.3-6.82-17.98-6.82-29.05c0-10.57,2.24-19.95,6.73-28.12
		c4.49-8.17,10.85-14.51,19.09-18.99c8.24-4.49,17.76-6.73,28.58-6.73c12.29,0,22.9,2.95,31.81,8.85
		c8.91,5.9,15.03,13.96,18.35,24.16c0.12,0.25,0.18,0.68,0.18,1.29c0,0.86-0.31,1.54-0.92,2.03c-0.62,0.49-1.41,0.74-2.4,0.74H809.8
		c-1.97,0-3.38-0.98-4.24-2.95c-2.95-6.39-8.36-9.59-16.23-9.59c-6.89,0-12.36,2.61-16.41,7.84c-4.06,5.23-6.09,12.39-6.09,21.48
		c0,9.47,2.03,16.91,6.09,22.31c4.06,5.41,9.53,8.11,16.41,8.11c8.48,0,14.08-3.5,16.78-10.51c0.74-2.09,2.15-3.13,4.24-3.13h26.19
		c1.35,0,2.31,0.34,2.86,1.01c0.55,0.68,0.71,1.63,0.46,2.86c-3.2,10.82-9.31,19.27-18.35,25.36c-9.04,6.09-19.76,9.13-32.18,9.13
		C778.51,149.01,769.01,146.73,760.83,142.18z"/>
	<path d="M851.84,146.79c-2.46,0-3.69-1.23-3.69-3.69V9.77c0-2.46,1.23-3.69,3.69-3.69h23.61c2.46,0,3.69,1.23,3.69,3.69v37.25
		c0,1.84,0.49,2.77,1.48,2.77c0.86,0,1.72-0.49,2.58-1.48c2.95-2.95,6.27-5.07,9.96-6.36s7.93-1.94,12.72-1.94
		c17.21,0,28.46,6.03,33.75,18.07c1.84,4.06,2.98,8.15,3.41,12.26c0.43,4.12,0.65,10.11,0.65,17.98v54.77
		c0,2.46-1.23,3.69-3.69,3.69h-23.61c-2.46,0-3.69-1.23-3.69-3.69V87.96c0-5.16-0.34-9.22-1.01-12.17
		c-0.68-2.95-1.82-5.28-3.41-7.01c-2.46-2.58-6.27-3.87-11.43-3.87c-6.64,0-11.25,1.78-13.83,5.35c-2.58,3.44-3.87,9.34-3.87,17.7
		v55.14c0,2.46-1.23,3.69-3.69,3.69H851.84z"/>
</g>
<g>
</g>
<g>
</g>
<g>
</g>
<g>
</g>
<g>
</g>
<g>
</g>
<g>
</g>
<g>
</g>
<g>
</g>
<g>
</g>
<g>
</g>
<g>
</g>
<g>
</g>
<g>
</g>
<g>
</g>
</svg>
